<?xml version="1.0" encoding="UTF-8"?>
<svg id="_图层_1" data-name="图层 1" xmlns="http://www.w3.org/2000/svg" viewBox="0 0 255.99 175.15">
  <defs>
    <style>
      .cls-1 {
        fill: #1296db;
        stroke-width: 0px;
      }
    </style>
  </defs>
  <path class="cls-1" d="M93.01,2.02c8.21,4.84,16.21,9.88,24.63,14.51,1.6.81,4,1.21,5.81.61,22.42-7.06,45.24-11.49,68.86-10.69,12.62.4,25.03,2.42,36.64,7.46,24.03,10.68,32.83,32.05,23.22,56.83-7,17.94-19.02,32.25-33.23,44.54-33.23,29.02-72.07,47.17-115.11,55.63-11.42,2.22-22.82,3.02-34.24,4.23-13.61-.61-26.83-2.22-39.64-7.06C3.32,158.02-6.49,134.84,4.32,108.44c7.81-19.15,21.22-33.86,36.84-46.76,9.22-7.45,19.22-14.11,29.23-20.76,2.8-1.82,4-3.83,4-7.06-.2-7.06,0-14.11,0-21.17,0-10.48,9.61-15.92,18.62-10.68ZM31.95,121.74c-6,14.5-1.4,31.85,12.81,39.7,8.01,4.43,16.61,6.05,25.43,6.05,20.82,0,40.64-5.85,59.46-14.32,7.4-3.23,14.41-7.25,21.62-10.68-.2-.4-.4-.8-.4-1.21-1,.2-2,.61-3.01,1.01-9.21,2.83-18.22,6.25-27.43,8.67-19.42,4.83-39.04,6.65-58.66,1.41-12.01-3.23-22.42-9.07-27.23-21.77-1.4-2.82-2-5.64-2.6-8.86h0ZM161.88,34.47c-3.8.6-7.6,1.82-11.41,2.62,1.8,2.22,3.4,3.23,5.2,4.03,10.81,6.04,21.83,11.89,32.63,17.93,9.21,5.24,9.21,14.92,0,20.36-31.03,18.14-62.26,36.28-93.29,54.42-12.21,7.05-20.62,2.21-20.62-11.7v-36.68c-.43-.04-.84-.18-1.2-.4-8.4,9.27-15.21,19.75-17.41,32.24-3.21,16.73,3.8,27.41,20.22,31.45,11.61,2.82,23.43,1.21,34.84-1.62,27.43-7.05,51.45-20.76,71.87-40.51,11.42-11.08,21.02-23.98,25.03-39.91,3.6-14.31-2.6-26.2-16.21-31.04-9.81-3.43-19.62-2.82-29.63-1.21h0s0,0,0,0ZM87.81,30.44c0,25.19,0,50.38.19,75.58,0,8.06,6.6,11.69,13.62,7.66,21.62-12.49,43.04-24.99,64.46-37.69,6.6-4.02,6.6-10.68,0-14.91-21.22-12.9-42.64-25.6-63.86-38.5-1.6-.8-3.4-1.41-4.2-1.81-6.41,0-10.21,3.63-10.21,9.68ZM154.47,18.35c-6.81,2.01-13.61,4.63-20.42,6.85v2.22c3.01.8,6.21,2.42,9.21,2.22,10.01-.8,20.02-3.63,30.03-3.63,21.02-.4,41.44,1.82,54.65,22.17.4-8.26-1.2-15.72-6.8-21.77-7.61-8.46-17.62-11.48-28.43-12.29-13.01-1.01-25.82.6-38.24,4.23h0Z"/>
</svg>